<svg xmlns="http://www.w3.org/2000/svg" viewBox="0 0 1200 630" width="1200" height="630">
  <defs>
    <!-- Win95 teal desktop dot grid -->
    <pattern id="dotgrid" x="0" y="0" width="16" height="16" patternUnits="userSpaceOnUse">
      <rect width="16" height="16" fill="#008080"/>
      <circle cx="0" cy="0" r="1" fill="rgba(0,0,0,0.18)"/>
    </pattern>

    <!-- Titlebar gradient: #000080 → #1084d0 -->
    <linearGradient id="titlebar-grad" x1="0" y1="0" x2="1" y2="0">
      <stop offset="0%" stop-color="#000080"/>
      <stop offset="100%" stop-color="#1084d0"/>
    </linearGradient>

    <!-- Titlebar subtle banding overlay -->
    <pattern id="titlebar-band" x="0" y="0" width="1" height="2" patternUnits="userSpaceOnUse">
      <rect width="1" height="1" fill="transparent"/>
      <rect y="1" width="1" height="1" fill="rgba(255,255,255,0.04)"/>
    </pattern>

    <!-- Clipping for window body -->
    <clipPath id="body-clip">
      <rect x="92" y="52" width="1084" height="540"/>
    </clipPath>
  </defs>

  <!-- ── Desktop background ───────────────────────────── -->
  <rect width="1200" height="630" fill="url(#dotgrid)"/>

  <!-- ── Desktop icons (left column) ─────────────────── -->
  <!-- Icon: Courses -->
  <g transform="translate(12, 18)">
    <svg x="8" y="8" width="38" height="38" viewBox="0 0 32 32" fill="none" stroke="white" stroke-width="2" stroke-linejoin="round">
      <rect x="2" y="10" width="28" height="18"/>
      <polyline points="2,10 16,3 30,10"/>
      <line x1="16" y1="3" x2="16" y2="10"/>
      <line x1="2" y1="16" x2="30" y2="16"/>
    </svg>
    <text x="27" y="56" font-family="'Pixelify Sans', Tahoma, sans-serif" font-size="10" fill="white" text-anchor="middle">Courses</text>
  </g>

  <g transform="translate(12, 100)">
    <svg x="8" y="8" width="38" height="38" viewBox="0 0 32 32" fill="none" stroke="white" stroke-width="2" stroke-linejoin="round">
      <path d="M2 10 L2 28 L30 28 L30 10 Z"/>
      <path d="M2 10 L11 4 L19 4 L19 10"/>
    </svg>
    <text x="27" y="56" font-family="'Pixelify Sans', Tahoma, sans-serif" font-size="10" fill="white" text-anchor="middle">Labs</text>
  </g>

  <g transform="translate(12, 182)">
    <svg x="8" y="8" width="38" height="38" viewBox="0 0 32 32" fill="none" stroke="white" stroke-width="2" stroke-linejoin="round">
      <rect x="6" y="14" width="20" height="16"/>
      <path d="M10 14 L10 10 A6 6 0 0 1 22 10 L22 14"/>
      <circle cx="16" cy="22" r="2.5" fill="white"/>
    </svg>
    <text x="27" y="56" font-family="'Pixelify Sans', Tahoma, sans-serif" font-size="10" fill="white" text-anchor="middle">CTF</text>
  </g>

  <g transform="translate(12, 264)">
    <svg x="8" y="8" width="38" height="38" viewBox="0 0 32 32" fill="none" stroke="white" stroke-width="2">
      <path d="M27 16 A11 11 0 1 1 16 5"/>
      <polyline points="16,1 16,7 22,7" stroke-linejoin="round"/>
    </svg>
    <text x="27" y="56" font-family="'Pixelify Sans', Tahoma, sans-serif" font-size="10" fill="white" text-anchor="middle">Games</text>
  </g>

  <g transform="translate(12, 346)">
    <svg x="8" y="8" width="38" height="38" viewBox="0 0 32 32" fill="none" stroke="white" stroke-width="2" stroke-linejoin="round">
      <rect x="3"  y="20" width="7" height="10"/>
      <rect x="12" y="13" width="7" height="17"/>
      <rect x="21" y="6"  width="7" height="24"/>
      <line x1="1" y1="30" x2="31" y2="30"/>
    </svg>
    <text x="27" y="56" font-family="'Pixelify Sans', Tahoma, sans-serif" font-size="10" fill="white" text-anchor="middle">Blog</text>
  </g>

  <g transform="translate(12, 428)">
    <svg x="8" y="8" width="38" height="38" viewBox="0 0 32 32" fill="none" stroke="white" stroke-width="2">
      <circle cx="16" cy="16" r="5"/>
      <circle cx="16" cy="16" r="13"/>
      <line x1="16" y1="3"  x2="16" y2="11"/>
      <line x1="16" y1="21" x2="16" y2="29"/>
      <line x1="3"  y1="16" x2="11" y2="16"/>
      <line x1="21" y1="16" x2="29" y2="16"/>
      <line x1="6"  y1="6"  x2="12" y2="12"/>
      <line x1="20" y1="20" x2="26" y2="26"/>
      <line x1="26" y1="6"  x2="20" y2="12"/>
      <line x1="12" y1="20" x2="6"  y2="26"/>
    </svg>
    <text x="27" y="56" font-family="'Pixelify Sans', Tahoma, sans-serif" font-size="10" fill="white" text-anchor="middle">Events</text>
  </g>

  <!-- ── Main window drop shadow ───────────────────────── -->
  <rect x="98" y="32" width="1086" height="542" fill="rgba(0,0,0,0.42)"/>

  <!-- ── Main window raised bevel ──────────────────────── -->
  <rect x="86" y="24" width="1088" height="542" fill="#c0c0c0"/>
  <line x1="86" y1="24" x2="1174" y2="24" stroke="#ffffff" stroke-width="2"/>
  <line x1="86" y1="24" x2="86"   y2="566" stroke="#ffffff" stroke-width="2"/>
  <line x1="88" y1="26" x2="1172" y2="26" stroke="#dfdfdf" stroke-width="1"/>
  <line x1="88" y1="26" x2="88"   y2="564" stroke="#dfdfdf" stroke-width="1"/>
  <line x1="86"  y1="566" x2="1174" y2="566" stroke="#000000" stroke-width="2"/>
  <line x1="1174" y1="24" x2="1174" y2="566" stroke="#000000" stroke-width="2"/>
  <line x1="88"  y1="564" x2="1172" y2="564" stroke="#808080" stroke-width="1"/>
  <line x1="1172" y1="26" x2="1172" y2="564" stroke="#808080" stroke-width="1"/>

  <!-- ── Title bar ──────────────────────────────────────── -->
  <rect x="88" y="26" width="1084" height="26" fill="url(#titlebar-grad)"/>
  <rect x="88" y="26" width="1084" height="26" fill="url(#titlebar-band)" opacity="0.5"/>
  <text x="98" y="44" font-family="'Pixelify Sans', Tahoma, sans-serif" font-size="16" font-weight="700" fill="white">{{SITE_HOSTNAME}}</text>

  <!-- Minimize button (inside titlebar: 88..1172) -->
  <rect x="1096" y="29" width="18" height="16" fill="#c0c0c0"/>
  <line x1="1098" y1="42" x2="1112" y2="42" stroke="#000000" stroke-width="2"/>
  <line x1="1096" y1="29" x2="1114" y2="29" stroke="#ffffff" stroke-width="1"/>
  <line x1="1096" y1="29" x2="1096" y2="45" stroke="#ffffff" stroke-width="1"/>
  <line x1="1096" y1="45" x2="1114" y2="45" stroke="#000000" stroke-width="1"/>
  <line x1="1114" y1="29" x2="1114" y2="45" stroke="#000000" stroke-width="1"/>

  <!-- Maximize button -->
  <rect x="1116" y="29" width="18" height="16" fill="#c0c0c0"/>
  <rect x="1119" y="32" width="12" height="10" fill="none" stroke="#000000" stroke-width="1.5"/>
  <line x1="1119" y1="34" x2="1131" y2="34" stroke="#000000" stroke-width="1.5"/>
  <line x1="1116" y1="29" x2="1134" y2="29" stroke="#ffffff" stroke-width="1"/>
  <line x1="1116" y1="29" x2="1116" y2="45" stroke="#ffffff" stroke-width="1"/>
  <line x1="1116" y1="45" x2="1134" y2="45" stroke="#000000" stroke-width="1"/>
  <line x1="1134" y1="29" x2="1134" y2="45" stroke="#000000" stroke-width="1"/>

  <!-- Close button -->
  <rect x="1136" y="29" width="18" height="16" fill="#c0c0c0"/>
  <line x1="1139" y1="32" x2="1151" y2="43" stroke="#000000" stroke-width="1.5"/>
  <line x1="1151" y1="32" x2="1139" y2="43" stroke="#000000" stroke-width="1.5"/>
  <line x1="1136" y1="29" x2="1154" y2="29" stroke="#ffffff" stroke-width="1"/>
  <line x1="1136" y1="29" x2="1136" y2="45" stroke="#ffffff" stroke-width="1"/>
  <line x1="1136" y1="45" x2="1154" y2="45" stroke="#000000" stroke-width="1"/>
  <line x1="1154" y1="29" x2="1154" y2="45" stroke="#000000" stroke-width="1"/>

  <!-- ── Window body ────────────────────────────────────── -->
  <rect x="88" y="52" width="1084" height="468" fill="#c0c0c0"/>

  <!-- ── Badge row ──────────────────────────────────────── -->
  <!-- Category badge (navy) — replaced by buildOgSvg overlay -->
  <!-- Label badge (green) — replaced by buildOgSvg overlay -->

  <!-- ── Hero content area ─────────────────────────────── -->
  <!-- Title, description, bullets — injected by buildOgSvg -->

  <!-- ── Status bar ─────────────────────────────────────── -->
  <rect x="88" y="520" width="1084" height="20" fill="#c0c0c0"/>
  <line x1="88" y1="520" x2="1172" y2="520" stroke="#808080" stroke-width="1"/>
  <rect x="92" y="523" width="200" height="14" fill="#c0c0c0"/>
  <line x1="92"  y1="523" x2="292" y2="523" stroke="#808080" stroke-width="1"/>
  <line x1="92"  y1="523" x2="92"  y2="537" stroke="#808080" stroke-width="1"/>
  <line x1="92"  y1="537" x2="292" y2="537" stroke="#ffffff" stroke-width="1"/>
  <line x1="292" y1="523" x2="292" y2="537" stroke="#ffffff" stroke-width="1"/>
  <text x="98" y="534" font-family="'Pixelify Sans', Tahoma, sans-serif" font-size="11" fill="#000000">Ready</text>

  <!-- ── Taskbar ─────────────────────────────────────────── -->
  <rect x="0" y="598" width="1200" height="32" fill="#c0c0c0"/>
  <line x1="0" y1="598" x2="1200" y2="598" stroke="#ffffff" stroke-width="2"/>
  <line x1="0" y1="597" x2="1200" y2="597" stroke="#808080" stroke-width="1"/>

  <!-- Start button -->
  <rect x="4" y="601" width="80" height="24" fill="#c0c0c0"/>
  <line x1="4"  y1="601" x2="84"  y2="601" stroke="#ffffff" stroke-width="1"/>
  <line x1="4"  y1="601" x2="4"   y2="625" stroke="#ffffff" stroke-width="1"/>
  <line x1="4"  y1="625" x2="84"  y2="625" stroke="#000000" stroke-width="1"/>
  <line x1="84" y1="601" x2="84"  y2="625" stroke="#000000" stroke-width="1"/>
  <line x1="5"  y1="602" x2="83"  y2="602" stroke="#dfdfdf" stroke-width="1"/>
  <line x1="5"  y1="602" x2="5"   y2="624" stroke="#dfdfdf" stroke-width="1"/>
  <polygon points="18,609 20,614 25,614 21,617 23,622 18,619 13,622 15,617 11,614 16,614" fill="#000080"/>
  <text x="27" y="619" font-family="'Pixelify Sans', Tahoma, sans-serif" font-size="13" font-weight="700" fill="#000000">kubectl</text>

  <!-- Taskbar divider -->
  <line x1="88" y1="603" x2="88" y2="625" stroke="#808080" stroke-width="1"/>
  <line x1="89" y1="603" x2="89" y2="625" stroke="#ffffff" stroke-width="1"/>

  <!-- Active window item in taskbar — text patched by buildOgSvg -->
  <rect x="92" y="603" width="340" height="22" fill="#c0c0c0"/>
  <line x1="92"  y1="603" x2="432" y2="603" stroke="#808080" stroke-width="1"/>
  <line x1="92"  y1="603" x2="92"  y2="625" stroke="#808080" stroke-width="1"/>
  <line x1="92"  y1="625" x2="432" y2="625" stroke="#ffffff" stroke-width="1"/>
  <line x1="432" y1="603" x2="432" y2="625" stroke="#ffffff" stroke-width="1"/>
  <rect x="97" y="607" width="12" height="8" fill="none" stroke="#000000" stroke-width="1"/>
  <line x1="100" y1="615" x2="106" y2="615" stroke="#000000" stroke-width="1"/>
  <line x1="103" y1="615" x2="103" y2="618" stroke="#000000" stroke-width="1"/>
  <text x="114" y="619" font-family="'Pixelify Sans', Tahoma, sans-serif" font-size="13" font-weight="700" fill="#000000">{{WINDOW_TITLE}}</text>

  <!-- System tray -->
  <rect x="1070" y="601" width="126" height="24" fill="#c0c0c0"/>
  <line x1="1070" y1="601" x2="1070" y2="625" stroke="#808080" stroke-width="1"/>
  <line x1="1071" y1="601" x2="1071" y2="625" stroke="#ffffff" stroke-width="1"/>
  <line x1="1074" y1="603" x2="1196" y2="603" stroke="#808080" stroke-width="1"/>
  <line x1="1074" y1="603" x2="1074" y2="623" stroke="#808080" stroke-width="1"/>
  <line x1="1074" y1="623" x2="1196" y2="623" stroke="#ffffff" stroke-width="1"/>
  <line x1="1196" y1="603" x2="1196" y2="623" stroke="#ffffff" stroke-width="1"/>
  <polygon points="1080,609 1084,609 1084,617 1080,617" fill="none" stroke="#000000" stroke-width="1"/>
  <path d="M1084 610 Q1088 613 1084 616" fill="none" stroke="#000000" stroke-width="1"/>
  <rect x="1094" y="609" width="5" height="4" fill="none" stroke="#000000" stroke-width="1"/>
  <rect x="1102" y="609" width="5" height="4" fill="none" stroke="#000000" stroke-width="1"/>
  <rect x="1098" y="615" width="5" height="4" fill="none" stroke="#000000" stroke-width="1"/>
  <line x1="1096" y1="613" x2="1100" y2="615" stroke="#000000" stroke-width="1"/>
  <line x1="1105" y1="613" x2="1100" y2="615" stroke="#000000" stroke-width="1"/>
  <line x1="1115" y1="603" x2="1115" y2="623" stroke="#808080" stroke-width="1"/>
  <line x1="1116" y1="603" x2="1116" y2="623" stroke="#ffffff" stroke-width="1"/>
  <text x="1120" y="616" font-family="'Pixelify Sans', Tahoma, sans-serif" font-size="12" fill="#000000">13:37</text>

</svg>
